<svg xmlns="http://www.w3.org/2000/svg" xmlns:xlink="http://www.w3.org/1999/xlink" width="500" zoomAndPan="magnify" viewBox="0 0 375 374.999991" height="500" preserveAspectRatio="xMidYMid meet" version="1.0"><defs><g/><clipPath id="1700645330"><path d="M 134.859375 134 L 239.796875 134 L 239.796875 255 L 134.859375 255 Z M 134.859375 134 " clip-rule="nonzero"/></clipPath></defs><g clip-path="url(#1700645330)"><path fill="#264de4" d="M 239.796875 134.613281 L 230.164062 242.886719 L 186.859375 254.929688 L 143.671875 242.902344 L 134.046875 134.613281 Z M 239.796875 134.613281 " fill-opacity="1" fill-rule="nonzero"/></g><path fill="#2965f1" d="M 221.917969 235.992188 L 230.148438 143.46875 L 186.921875 143.46875 L 186.921875 245.726562 Z M 221.917969 235.992188 " fill-opacity="1" fill-rule="nonzero"/><path fill="#ebebeb" d="M 156.109375 183.632812 L 157.296875 196.914062 L 186.921875 196.914062 L 186.921875 183.632812 Z M 156.109375 183.632812 " fill-opacity="1" fill-rule="nonzero"/><path fill="#ebebeb" d="M 186.921875 156.75 L 153.726562 156.75 L 154.929688 170.03125 L 186.921875 170.03125 Z M 186.921875 156.75 " fill-opacity="1" fill-rule="nonzero"/><path fill="#ebebeb" d="M 186.921875 231.941406 L 186.921875 218.125 L 186.867188 218.140625 L 172.121094 214.144531 L 171.179688 203.554688 L 157.890625 203.554688 L 159.742188 224.40625 L 186.863281 231.960938 Z M 186.921875 231.941406 " fill-opacity="1" fill-rule="nonzero"/><path fill="#ffffff" d="M 203.179688 196.914062 L 201.644531 214.136719 L 186.878906 218.136719 L 186.878906 231.953125 L 214.019531 224.40625 L 214.21875 222.164062 L 217.328125 187.199219 L 217.652344 183.632812 L 220.039062 156.75 L 186.878906 156.75 L 186.878906 170.03125 L 205.53125 170.03125 L 204.328125 183.632812 L 186.878906 183.632812 L 186.878906 196.914062 Z M 203.179688 196.914062 " fill-opacity="1" fill-rule="nonzero"/><g fill="#ffffff" fill-opacity="1"><g transform="translate(162.269247, 126.591542)"><g><path d="M 10.011719 0.300781 C 10.667969 0.300781 14.578125 -2.597656 16.300781 -4.046875 L 16.191406 -4.210938 C 15.34375 -3.910156 14.523438 -3.71875 13.648438 -3.71875 C 7.082031 -3.71875 4.59375 -10.367188 4.59375 -14.304688 C 4.621094 -16.601562 5.660156 -17.503906 6.699219 -17.503906 C 7.875 -17.503906 10.257812 -16.574219 11.789062 -11.160156 L 11.953125 -11.105469 L 16.4375 -15.507812 C 15.507812 -17.230469 12.9375 -18.84375 9.570312 -18.84375 C 7.65625 -18.84375 0.710938 -17.09375 0.683594 -9.40625 C 0.65625 -3.472656 4.785156 0.109375 10.011719 0.300781 Z M 10.011719 0.300781 "/></g></g></g><g fill="#ffffff" fill-opacity="1"><g transform="translate(178.978952, 126.591542)"><g><path d="M 8.53125 -12.636719 C 5.167969 -14.632812 3.828125 -15.371094 3.828125 -16.519531 C 3.828125 -17.148438 4.292969 -17.585938 5.195312 -17.585938 C 7.929688 -17.585938 11.734375 -14.988281 14.824219 -10.832031 L 14.988281 -10.832031 L 14.988281 -18.761719 L 14.851562 -18.761719 L 13.101562 -17.667969 C 12.089844 -18.296875 10.558594 -18.816406 8.640625 -18.816406 C 4.839844 -18.816406 1.75 -17.421875 1.695312 -13.539062 C 1.640625 -10.558594 3.582031 -9.160156 5.878906 -7.792969 L 9.050781 -5.851562 C 11.652344 -4.320312 13.894531 -3.28125 13.894531 -2.050781 C 13.894531 -1.53125 13.539062 -0.984375 12.308594 -0.984375 C 10.230469 -0.984375 4.566406 -2.597656 1.257812 -9.160156 L 1.066406 -9.132812 L 1.53125 -0.710938 C 3.992188 -0.355469 6.234375 0.546875 8.886719 0.546875 C 13.621094 0.546875 15.972656 -2.351562 15.972656 -5.277344 C 15.972656 -7.601562 14.46875 -9.078125 11.816406 -10.640625 Z M 8.53125 -12.636719 "/></g></g></g><g fill="#ffffff" fill-opacity="1"><g transform="translate(195.852742, 126.591542)"><g><path d="M 8.53125 -12.636719 C 5.167969 -14.632812 3.828125 -15.371094 3.828125 -16.519531 C 3.828125 -17.148438 4.292969 -17.585938 5.195312 -17.585938 C 7.929688 -17.585938 11.734375 -14.988281 14.824219 -10.832031 L 14.988281 -10.832031 L 14.988281 -18.761719 L 14.851562 -18.761719 L 13.101562 -17.667969 C 12.089844 -18.296875 10.558594 -18.816406 8.640625 -18.816406 C 4.839844 -18.816406 1.75 -17.421875 1.695312 -13.539062 C 1.640625 -10.558594 3.582031 -9.160156 5.878906 -7.792969 L 9.050781 -5.851562 C 11.652344 -4.320312 13.894531 -3.28125 13.894531 -2.050781 C 13.894531 -1.53125 13.539062 -0.984375 12.308594 -0.984375 C 10.230469 -0.984375 4.566406 -2.597656 1.257812 -9.160156 L 1.066406 -9.132812 L 1.53125 -0.710938 C 3.992188 -0.355469 6.234375 0.546875 8.886719 0.546875 C 13.621094 0.546875 15.972656 -2.351562 15.972656 -5.277344 C 15.972656 -7.601562 14.46875 -9.078125 11.816406 -10.640625 Z M 8.53125 -12.636719 "/></g></g></g></svg>