<svg xmlns="http://www.w3.org/2000/svg" xmlns:xlink="http://www.w3.org/1999/xlink" width="500" zoomAndPan="magnify" viewBox="0 0 375 374.999991" height="500" preserveAspectRatio="xMidYMid meet" version="1.0"><defs><g/><clipPath id="325d4dd6e1"><path d="M 141 135.515625 L 234 135.515625 L 234 239.765625 L 141 239.765625 Z M 141 135.515625 " clip-rule="nonzero"/></clipPath></defs><g clip-path="url(#325d4dd6e1)"><path fill="#e34f26" d="M 149.972656 229.175781 L 141.621094 135.515625 L 233.453125 135.515625 L 225.105469 229.175781 L 187.4375 239.765625 " fill-opacity="1" fill-rule="nonzero"/></g><path fill="#ef652a" d="M 187.640625 231.621094 L 217.976562 223.273438 L 225.105469 143.046875 L 187.640625 143.046875 " fill-opacity="1" fill-rule="nonzero"/><path fill="#ebebeb" d="M 187.640625 177.867188 L 172.367188 177.867188 L 171.351562 166.054688 L 187.640625 166.054688 L 187.640625 154.652344 L 158.726562 154.652344 L 158.929688 157.707031 L 161.78125 189.472656 L 187.640625 189.472656 Z M 187.640625 207.796875 L 187.4375 207.796875 L 174.609375 204.335938 L 173.792969 195.171875 L 162.390625 195.171875 L 163.816406 213.292969 L 187.4375 219.808594 L 187.640625 219.808594 Z M 187.640625 207.796875 " fill-opacity="1" fill-rule="nonzero"/><path fill="#ffffff" d="M 187.4375 177.867188 L 187.4375 189.472656 L 201.6875 189.472656 L 200.261719 204.335938 L 187.4375 207.796875 L 187.4375 219.808594 L 211.054688 213.292969 L 211.257812 211.257812 L 213.90625 180.921875 L 214.3125 177.867188 Z M 187.4375 154.652344 L 187.4375 166.054688 L 215.332031 166.054688 L 215.535156 163.613281 L 216.144531 157.707031 L 216.347656 154.652344 Z M 187.4375 154.652344 " fill-opacity="1" fill-rule="nonzero"/><g fill="#ffffff" fill-opacity="1"><g transform="translate(142.905977, 125.941635)"><g><path d="M 18.378906 -18.460938 L 10.203125 -18.460938 L 10.203125 -18.296875 L 11.625 -16.765625 L 11.625 -9.1875 L 7.628906 -9.1875 L 7.628906 -16.765625 L 9.023438 -18.296875 L 9.023438 -18.460938 L 0.875 -18.460938 L 0.875 -18.296875 L 2.269531 -16.765625 L 2.269531 -1.695312 L 0.875 -0.164062 L 0.875 0 L 9.023438 0 L 9.023438 -0.164062 L 7.628906 -1.695312 L 7.628906 -8.695312 L 11.625 -8.695312 L 11.625 -1.695312 L 10.203125 -0.164062 L 10.203125 0 L 18.378906 0 L 18.378906 -0.164062 L 16.957031 -1.695312 L 16.957031 -16.765625 L 18.378906 -18.296875 Z M 18.378906 -18.460938 "/></g></g></g><g fill="#ffffff" fill-opacity="1"><g transform="translate(162.131705, 125.941635)"><g><path d="M 16.765625 -18.460938 L 0.820312 -18.460938 L 0.820312 -10.695312 L 0.984375 -10.695312 C 5.167969 -17.941406 5.195312 -17.96875 5.796875 -17.96875 L 6.097656 -17.96875 L 6.097656 -1.695312 L 4.675781 -0.164062 L 4.675781 0 L 12.855469 0 L 12.855469 -0.164062 L 11.433594 -1.695312 L 11.433594 -17.96875 L 11.789062 -17.96875 C 12.253906 -17.96875 12.390625 -17.941406 16.601562 -10.695312 L 16.765625 -10.695312 Z M 16.765625 -18.460938 "/></g></g></g><g fill="#ffffff" fill-opacity="1"><g transform="translate(179.579805, 125.941635)"><g><path d="M 19.71875 -18.460938 L 14.003906 -18.460938 L 10.667969 -10.148438 L 10.53125 -10.148438 L 6.5625 -18.515625 L 0.65625 -18.460938 L 0.65625 -18.296875 L 2.1875 -15.5625 L 2.1875 0 L 7.957031 0 L 7.957031 -0.136719 C 4.566406 -2.898438 2.789062 -6.535156 2.789062 -12.417969 L 2.789062 -14.25 L 2.925781 -14.25 L 8.3125 -3.253906 L 8.613281 -3.253906 L 13.183594 -14.496094 L 13.347656 -14.496094 L 13.375 -1.585938 L 11.898438 -0.164062 L 11.898438 0 L 18.707031 0 L 18.679688 -16.875 L 19.71875 -18.296875 Z M 19.71875 -18.460938 "/></g></g></g><g fill="#ffffff" fill-opacity="1"><g transform="translate(200.282333, 125.941635)"><g><path d="M 15.398438 -8.886719 C 12.71875 -3.855469 11.242188 -0.492188 8.585938 -0.492188 L 7.683594 -0.492188 L 7.683594 -16.765625 L 9.105469 -18.296875 L 9.105469 -18.460938 L 0.929688 -18.460938 L 0.929688 -18.296875 L 2.351562 -16.765625 L 2.378906 -1.585938 L 0.902344 -0.164062 L 0.902344 0 L 15.5625 0 L 15.5625 -8.886719 Z M 15.398438 -8.886719 "/></g></g></g><g fill="#ffffff" fill-opacity="1"><g transform="translate(216.718557, 125.941635)"><g><path d="M 2.679688 -12.417969 L 3.035156 -14.03125 L 13.867188 -14.03125 L 14.03125 -14.195312 L 14.03125 -19.992188 L 13.8125 -19.992188 C 13.292969 -18.925781 12.144531 -18.460938 9.957031 -18.460938 L 3.472656 -18.460938 L 1.121094 -8.121094 L 7.875 -6.644531 C 11.324219 -5.851562 12.5 -5.03125 12.5 -3.71875 C 12.5 -2.488281 11.542969 -1.914062 10.039062 -1.914062 C 7.246094 -1.914062 2.40625 -4.347656 0.984375 -6.015625 L 0.820312 -6.015625 L 0.820312 0 C 13.457031 0.957031 14.550781 -4.566406 14.550781 -6.480469 C 14.550781 -9.515625 12.71875 -10.722656 7.710938 -11.570312 Z M 2.679688 -12.417969 "/></g></g></g></svg>