<svg xmlns="http://www.w3.org/2000/svg" xmlns:xlink="http://www.w3.org/1999/xlink" width="500" zoomAndPan="magnify" viewBox="0 0 375 374.999991" height="500" preserveAspectRatio="xMidYMid meet" version="1.0"><defs><clipPath id="5364678704"><path d="M 168 197 L 205 197 L 205 236.921875 L 168 236.921875 Z M 168 197 " clip-rule="nonzero"/></clipPath><clipPath id="0da53b1871"><path d="M 106.640625 137.921875 L 268.640625 137.921875 L 268.640625 201 L 106.640625 201 Z M 106.640625 137.921875 " clip-rule="nonzero"/></clipPath><clipPath id="a0c8c35039"><path d="M 149.007812 160.238281 L 183.796875 160.238281 L 183.796875 200 L 149.007812 200 Z M 149.007812 160.238281 " clip-rule="nonzero"/></clipPath><clipPath id="3922dbbe8e"><path d="M 165.5 160.824219 L 150.070312 169.699219 C 149.492188 170.03125 149.136719 170.644531 149.136719 171.308594 L 149.136719 189.070312 C 149.136719 189.734375 149.492188 190.347656 150.070312 190.679688 L 165.5 199.5625 C 166.078125 199.894531 166.789062 199.894531 167.363281 199.5625 L 182.792969 190.679688 C 183.367188 190.347656 183.722656 189.734375 183.722656 189.070312 L 183.722656 171.308594 C 183.722656 170.644531 183.367188 170.03125 182.789062 169.699219 L 167.363281 160.824219 C 167.074219 160.65625 166.75 160.574219 166.429688 160.574219 C 166.105469 160.574219 165.785156 160.65625 165.496094 160.824219 " clip-rule="nonzero"/></clipPath><clipPath id="1aab5b643c"><path d="M 199.3125 168.191406 L 155.835938 146.953125 L 133.546875 192.277344 L 177.019531 213.519531 Z M 199.3125 168.191406 " clip-rule="nonzero"/></clipPath><linearGradient x1="-0.347234" gradientTransform="matrix(-13.939725, 28.343944, -28.436929, -13.894143, 172.711, 167.401976)" y1="0" x2="1.251868" gradientUnits="userSpaceOnUse" y2="0" id="3bee1c3bf4"><stop stop-opacity="1" stop-color="rgb(24.299622%, 52.49939%, 23.899841%)" offset="0"/><stop stop-opacity="1" stop-color="rgb(24.299622%, 52.49939%, 23.899841%)" offset="0.25"/><stop stop-opacity="1" stop-color="rgb(24.299622%, 52.49939%, 23.899841%)" offset="0.28125"/><stop stop-opacity="1" stop-color="rgb(24.299622%, 52.49939%, 23.899841%)" offset="0.296875"/><stop stop-opacity="1" stop-color="rgb(24.415588%, 52.565002%, 23.991394%)" offset="0.304688"/><stop stop-opacity="1" stop-color="rgb(24.708557%, 52.731323%, 24.221802%)" offset="0.3125"/><stop stop-opacity="1" stop-color="rgb(25.059509%, 52.929688%, 24.499512%)" offset="0.320313"/><stop stop-opacity="1" stop-color="rgb(25.411987%, 53.129578%, 24.777222%)" offset="0.328125"/><stop stop-opacity="1" stop-color="rgb(25.762939%, 53.327942%, 25.053406%)" offset="0.335938"/><stop stop-opacity="1" stop-color="rgb(26.113892%, 53.527832%, 25.331116%)" offset="0.34375"/><stop stop-opacity="1" stop-color="rgb(26.46637%, 53.726196%, 25.608826%)" offset="0.351563"/><stop stop-opacity="1" stop-color="rgb(26.817322%, 53.926086%, 25.886536%)" offset="0.359375"/><stop stop-opacity="1" stop-color="rgb(27.1698%, 54.125977%, 26.16272%)" offset="0.367188"/><stop stop-opacity="1" stop-color="rgb(27.520752%, 54.324341%, 26.44043%)" offset="0.375"/><stop stop-opacity="1" stop-color="rgb(27.871704%, 54.524231%, 26.71814%)" offset="0.382812"/><stop stop-opacity="1" stop-color="rgb(28.224182%, 54.722595%, 26.99585%)" offset="0.390625"/><stop stop-opacity="1" stop-color="rgb(28.575134%, 54.922485%, 27.27356%)" offset="0.398437"/><stop stop-opacity="1" stop-color="rgb(28.927612%, 55.12085%, 27.549744%)" offset="0.40625"/><stop stop-opacity="1" stop-color="rgb(29.278564%, 55.32074%, 27.827454%)" offset="0.414062"/><stop stop-opacity="1" stop-color="rgb(29.629517%, 55.52063%, 28.105164%)" offset="0.421875"/><stop stop-opacity="1" stop-color="rgb(29.981995%, 55.718994%, 28.382874%)" offset="0.429687"/><stop stop-opacity="1" stop-color="rgb(30.332947%, 55.918884%, 28.659058%)" offset="0.4375"/><stop stop-opacity="1" stop-color="rgb(30.685425%, 56.117249%, 28.936768%)" offset="0.445312"/><stop stop-opacity="1" stop-color="rgb(31.036377%, 56.317139%, 29.214478%)" offset="0.453125"/><stop stop-opacity="1" stop-color="rgb(31.388855%, 56.515503%, 29.492188%)" offset="0.460938"/><stop stop-opacity="1" stop-color="rgb(31.739807%, 56.715393%, 29.768372%)" offset="0.46875"/><stop stop-opacity="1" stop-color="rgb(32.090759%, 56.915283%, 30.046082%)" offset="0.476562"/><stop stop-opacity="1" stop-color="rgb(32.443237%, 57.113647%, 30.323792%)" offset="0.484375"/><stop stop-opacity="1" stop-color="rgb(32.794189%, 57.313538%, 30.601501%)" offset="0.492188"/><stop stop-opacity="1" stop-color="rgb(33.135986%, 57.514954%, 30.865479%)" offset="0.5"/><stop stop-opacity="1" stop-color="rgb(33.328247%, 57.749939%, 30.941772%)" offset="0.507812"/><stop stop-opacity="1" stop-color="rgb(33.380127%, 58.015442%, 30.839539%)" offset="0.515625"/><stop stop-opacity="1" stop-color="rgb(33.432007%, 58.280945%, 30.738831%)" offset="0.523438"/><stop stop-opacity="1" stop-color="rgb(33.485413%, 58.546448%, 30.636597%)" offset="0.53125"/><stop stop-opacity="1" stop-color="rgb(33.537292%, 58.811951%, 30.534363%)" offset="0.539062"/><stop stop-opacity="1" stop-color="rgb(33.589172%, 59.077454%, 30.433655%)" offset="0.546875"/><stop stop-opacity="1" stop-color="rgb(33.641052%, 59.342957%, 30.331421%)" offset="0.554688"/><stop stop-opacity="1" stop-color="rgb(33.692932%, 59.608459%, 30.230713%)" offset="0.5625"/><stop stop-opacity="1" stop-color="rgb(33.744812%, 59.873962%, 30.128479%)" offset="0.570312"/><stop stop-opacity="1" stop-color="rgb(33.796692%, 60.139465%, 30.027771%)" offset="0.578125"/><stop stop-opacity="1" stop-color="rgb(33.850098%, 60.406494%, 29.925537%)" offset="0.585938"/><stop stop-opacity="1" stop-color="rgb(33.901978%, 60.671997%, 29.824829%)" offset="0.59375"/><stop stop-opacity="1" stop-color="rgb(33.953857%, 60.9375%, 29.722595%)" offset="0.601562"/><stop stop-opacity="1" stop-color="rgb(34.005737%, 61.203003%, 29.620361%)" offset="0.609375"/><stop stop-opacity="1" stop-color="rgb(34.057617%, 61.468506%, 29.519653%)" offset="0.617188"/><stop stop-opacity="1" stop-color="rgb(34.109497%, 61.734009%, 29.417419%)" offset="0.625"/><stop stop-opacity="1" stop-color="rgb(34.161377%, 61.999512%, 29.316711%)" offset="0.632813"/><stop stop-opacity="1" stop-color="rgb(34.214783%, 62.265015%, 29.214478%)" offset="0.640625"/><stop stop-opacity="1" stop-color="rgb(34.266663%, 62.530518%, 29.11377%)" offset="0.648438"/><stop stop-opacity="1" stop-color="rgb(34.318542%, 62.796021%, 29.011536%)" offset="0.65625"/><stop stop-opacity="1" stop-color="rgb(34.370422%, 63.061523%, 28.909302%)" offset="0.664063"/><stop stop-opacity="1" stop-color="rgb(34.422302%, 63.328552%, 28.808594%)" offset="0.671875"/><stop stop-opacity="1" stop-color="rgb(34.474182%, 63.594055%, 28.70636%)" offset="0.679688"/><stop stop-opacity="1" stop-color="rgb(34.526062%, 63.859558%, 28.605652%)" offset="0.6875"/><stop stop-opacity="1" stop-color="rgb(34.577942%, 64.125061%, 28.503418%)" offset="0.695313"/><stop stop-opacity="1" stop-color="rgb(34.631348%, 64.390564%, 28.40271%)" offset="0.703125"/><stop stop-opacity="1" stop-color="rgb(34.683228%, 64.656067%, 28.300476%)" offset="0.710938"/><stop stop-opacity="1" stop-color="rgb(34.735107%, 64.92157%, 28.199768%)" offset="0.71875"/><stop stop-opacity="1" stop-color="rgb(34.786987%, 65.187073%, 28.097534%)" offset="0.726563"/><stop stop-opacity="1" stop-color="rgb(34.838867%, 65.452576%, 27.9953%)" offset="0.734375"/><stop stop-opacity="1" stop-color="rgb(34.890747%, 65.718079%, 27.894592%)" offset="0.742188"/><stop stop-opacity="1" stop-color="rgb(34.942627%, 65.983582%, 27.792358%)" offset="0.75"/><stop stop-opacity="1" stop-color="rgb(34.996033%, 66.25061%, 27.69165%)" offset="0.757812"/><stop stop-opacity="1" stop-color="rgb(35.047913%, 66.516113%, 27.589417%)" offset="0.765625"/><stop stop-opacity="1" stop-color="rgb(35.099792%, 66.781616%, 27.488708%)" offset="0.773437"/><stop stop-opacity="1" stop-color="rgb(35.151672%, 67.047119%, 27.386475%)" offset="0.78125"/><stop stop-opacity="1" stop-color="rgb(35.203552%, 67.312622%, 27.284241%)" offset="0.789062"/><stop stop-opacity="1" stop-color="rgb(35.255432%, 67.578125%, 27.183533%)" offset="0.796875"/><stop stop-opacity="1" stop-color="rgb(35.290527%, 67.755127%, 27.116394%)" offset="0.8125"/><stop stop-opacity="1" stop-color="rgb(35.299683%, 67.799377%, 27.099609%)" offset="0.875"/><stop stop-opacity="1" stop-color="rgb(35.299683%, 67.799377%, 27.099609%)" offset="1"/></linearGradient><clipPath id="07feb0ab24"><path d="M 149.375 160.601562 L 183.433594 160.601562 L 183.433594 200 L 149.375 200 Z M 149.375 160.601562 " clip-rule="nonzero"/></clipPath><clipPath id="802b74ae80"><path d="M 149.519531 190.199219 C 149.667969 190.390625 149.851562 190.554688 150.070312 190.679688 L 163.304688 198.300781 L 165.507812 199.5625 C 165.839844 199.753906 166.214844 199.832031 166.582031 199.804688 C 166.707031 199.796875 166.828125 199.773438 166.949219 199.738281 L 183.222656 170.039062 C 183.097656 169.90625 182.953125 169.792969 182.789062 169.699219 L 172.6875 163.882812 L 167.347656 160.820312 C 167.195312 160.734375 167.03125 160.671875 166.863281 160.628906 Z M 149.519531 190.199219 " clip-rule="nonzero"/></clipPath><clipPath id="4be65eaae6"><path d="M 130.722656 174.472656 L 161.421875 215.886719 L 202.019531 185.988281 L 171.320312 144.578125 Z M 130.722656 174.472656 " clip-rule="nonzero"/></clipPath><linearGradient x1="-0.456149" gradientTransform="matrix(39.113238, -28.805539, 28.900039, 38.985343, 164.092256, 182.281796)" y1="0" x2="0.581849" gradientUnits="userSpaceOnUse" y2="0" id="0f8474eefe"><stop stop-opacity="1" stop-color="rgb(24.299622%, 52.49939%, 23.899841%)" offset="0"/><stop stop-opacity="1" stop-color="rgb(24.299622%, 52.49939%, 23.899841%)" offset="0.5"/><stop stop-opacity="1" stop-color="rgb(24.299622%, 52.49939%, 23.899841%)" offset="0.5625"/><stop stop-opacity="1" stop-color="rgb(24.307251%, 52.502441%, 23.904419%)" offset="0.570313"/><stop stop-opacity="1" stop-color="rgb(24.67041%, 52.69165%, 24.176025%)" offset="0.574219"/><stop stop-opacity="1" stop-color="rgb(25.027466%, 52.876282%, 24.441528%)" offset="0.578125"/><stop stop-opacity="1" stop-color="rgb(25.384521%, 53.060913%, 24.707031%)" offset="0.582031"/><stop stop-opacity="1" stop-color="rgb(25.741577%, 53.24707%, 24.972534%)" offset="0.585938"/><stop stop-opacity="1" stop-color="rgb(26.098633%, 53.431702%, 25.238037%)" offset="0.589844"/><stop stop-opacity="1" stop-color="rgb(26.455688%, 53.616333%, 25.505066%)" offset="0.59375"/><stop stop-opacity="1" stop-color="rgb(26.811218%, 53.800964%, 25.770569%)" offset="0.597656"/><stop stop-opacity="1" stop-color="rgb(27.168274%, 53.985596%, 26.036072%)" offset="0.601562"/><stop stop-opacity="1" stop-color="rgb(27.52533%, 54.170227%, 26.301575%)" offset="0.605469"/><stop stop-opacity="1" stop-color="rgb(27.882385%, 54.356384%, 26.567078%)" offset="0.609375"/><stop stop-opacity="1" stop-color="rgb(28.239441%, 54.541016%, 26.832581%)" offset="0.613281"/><stop stop-opacity="1" stop-color="rgb(28.596497%, 54.725647%, 27.098083%)" offset="0.617188"/><stop stop-opacity="1" stop-color="rgb(28.952026%, 54.910278%, 27.363586%)" offset="0.621094"/><stop stop-opacity="1" stop-color="rgb(29.309082%, 55.096436%, 27.629089%)" offset="0.625"/><stop stop-opacity="1" stop-color="rgb(29.666138%, 55.281067%, 27.894592%)" offset="0.628906"/><stop stop-opacity="1" stop-color="rgb(30.023193%, 55.465698%, 28.160095%)" offset="0.632812"/><stop stop-opacity="1" stop-color="rgb(30.378723%, 55.65033%, 28.425598%)" offset="0.636719"/><stop stop-opacity="1" stop-color="rgb(30.735779%, 55.834961%, 28.692627%)" offset="0.640625"/><stop stop-opacity="1" stop-color="rgb(31.092834%, 56.019592%, 28.95813%)" offset="0.644531"/><stop stop-opacity="1" stop-color="rgb(31.44989%, 56.20575%, 29.223633%)" offset="0.648438"/><stop stop-opacity="1" stop-color="rgb(31.806946%, 56.390381%, 29.489136%)" offset="0.652344"/><stop stop-opacity="1" stop-color="rgb(32.164001%, 56.575012%, 29.754639%)" offset="0.65625"/><stop stop-opacity="1" stop-color="rgb(32.519531%, 56.759644%, 30.020142%)" offset="0.660156"/><stop stop-opacity="1" stop-color="rgb(32.876587%, 56.944275%, 30.285645%)" offset="0.664062"/><stop stop-opacity="1" stop-color="rgb(33.233643%, 57.128906%, 30.551147%)" offset="0.667969"/><stop stop-opacity="1" stop-color="rgb(33.590698%, 57.315063%, 30.81665%)" offset="0.671875"/><stop stop-opacity="1" stop-color="rgb(33.947754%, 57.499695%, 31.082153%)" offset="0.675781"/><stop stop-opacity="1" stop-color="rgb(34.30481%, 57.684326%, 31.347656%)" offset="0.679688"/><stop stop-opacity="1" stop-color="rgb(34.660339%, 57.868958%, 31.613159%)" offset="0.683594"/><stop stop-opacity="1" stop-color="rgb(35.017395%, 58.053589%, 31.878662%)" offset="0.6875"/><stop stop-opacity="1" stop-color="rgb(35.374451%, 58.23822%, 32.144165%)" offset="0.691406"/><stop stop-opacity="1" stop-color="rgb(35.731506%, 58.424377%, 32.411194%)" offset="0.695313"/><stop stop-opacity="1" stop-color="rgb(36.087036%, 58.609009%, 32.676697%)" offset="0.699219"/><stop stop-opacity="1" stop-color="rgb(36.444092%, 58.79364%, 32.9422%)" offset="0.703125"/><stop stop-opacity="1" stop-color="rgb(36.801147%, 58.978271%, 33.207703%)" offset="0.707031"/><stop stop-opacity="1" stop-color="rgb(37.158203%, 59.162903%, 33.473206%)" offset="0.710938"/><stop stop-opacity="1" stop-color="rgb(37.515259%, 59.347534%, 33.738708%)" offset="0.714844"/><stop stop-opacity="1" stop-color="rgb(37.872314%, 59.533691%, 34.004211%)" offset="0.71875"/><stop stop-opacity="1" stop-color="rgb(38.031006%, 59.657288%, 34.109497%)" offset="0.726562"/><stop stop-opacity="1" stop-color="rgb(38.305664%, 59.890747%, 34.286499%)" offset="0.734375"/><stop stop-opacity="1" stop-color="rgb(38.536072%, 60.110474%, 34.428406%)" offset="0.742188"/><stop stop-opacity="1" stop-color="rgb(38.768005%, 60.331726%, 34.571838%)" offset="0.75"/><stop stop-opacity="1" stop-color="rgb(38.999939%, 60.551453%, 34.713745%)" offset="0.757812"/><stop stop-opacity="1" stop-color="rgb(39.231873%, 60.771179%, 34.855652%)" offset="0.765625"/><stop stop-opacity="1" stop-color="rgb(39.46228%, 60.992432%, 34.997559%)" offset="0.773438"/><stop stop-opacity="1" stop-color="rgb(39.694214%, 61.212158%, 35.140991%)" offset="0.78125"/><stop stop-opacity="1" stop-color="rgb(39.926147%, 61.433411%, 35.282898%)" offset="0.789063"/><stop stop-opacity="1" stop-color="rgb(40.158081%, 61.653137%, 35.424805%)" offset="0.796875"/><stop stop-opacity="1" stop-color="rgb(40.390015%, 61.87439%, 35.566711%)" offset="0.804688"/><stop stop-opacity="1" stop-color="rgb(40.620422%, 62.094116%, 35.710144%)" offset="0.8125"/><stop stop-opacity="1" stop-color="rgb(40.852356%, 62.315369%, 35.852051%)" offset="0.820313"/><stop stop-opacity="1" stop-color="rgb(41.08429%, 62.535095%, 35.993958%)" offset="0.828125"/><stop stop-opacity="1" stop-color="rgb(41.316223%, 62.756348%, 36.135864%)" offset="0.835938"/><stop stop-opacity="1" stop-color="rgb(41.546631%, 62.976074%, 36.279297%)" offset="0.84375"/><stop stop-opacity="1" stop-color="rgb(41.778564%, 63.195801%, 36.421204%)" offset="0.851562"/><stop stop-opacity="1" stop-color="rgb(42.010498%, 63.417053%, 36.56311%)" offset="0.859375"/><stop stop-opacity="1" stop-color="rgb(42.242432%, 63.63678%, 36.706543%)" offset="0.867188"/><stop stop-opacity="1" stop-color="rgb(42.474365%, 63.858032%, 36.84845%)" offset="0.875"/><stop stop-opacity="1" stop-color="rgb(42.704773%, 64.077759%, 36.990356%)" offset="0.882812"/><stop stop-opacity="1" stop-color="rgb(42.936707%, 64.299011%, 37.132263%)" offset="0.890625"/><stop stop-opacity="1" stop-color="rgb(43.16864%, 64.518738%, 37.275696%)" offset="0.898438"/><stop stop-opacity="1" stop-color="rgb(43.400574%, 64.73999%, 37.417603%)" offset="0.90625"/><stop stop-opacity="1" stop-color="rgb(43.630981%, 64.959717%, 37.559509%)" offset="0.914063"/><stop stop-opacity="1" stop-color="rgb(43.862915%, 65.180969%, 37.701416%)" offset="0.921875"/><stop stop-opacity="1" stop-color="rgb(44.094849%, 65.400696%, 37.844849%)" offset="0.929688"/><stop stop-opacity="1" stop-color="rgb(44.326782%, 65.620422%, 37.986755%)" offset="0.9375"/><stop stop-opacity="1" stop-color="rgb(44.55719%, 65.841675%, 38.128662%)" offset="0.945312"/><stop stop-opacity="1" stop-color="rgb(44.789124%, 66.061401%, 38.270569%)" offset="0.953125"/><stop stop-opacity="1" stop-color="rgb(45.021057%, 66.282654%, 38.414001%)" offset="0.960938"/><stop stop-opacity="1" stop-color="rgb(45.252991%, 66.50238%, 38.555908%)" offset="0.96875"/><stop stop-opacity="1" stop-color="rgb(45.484924%, 66.723633%, 38.697815%)" offset="0.976562"/><stop stop-opacity="1" stop-color="rgb(45.715332%, 66.943359%, 38.839722%)" offset="0.984375"/><stop stop-opacity="1" stop-color="rgb(45.947266%, 67.164612%, 38.983154%)" offset="0.992187"/><stop stop-opacity="1" stop-color="rgb(46.179199%, 67.384338%, 39.125061%)" offset="1"/></linearGradient><clipPath id="b875454ded"><path d="M 150.113281 160.578125 L 183.691406 160.578125 L 183.691406 199.792969 L 150.113281 199.792969 Z M 150.113281 160.578125 " clip-rule="nonzero"/></clipPath><clipPath id="a3d10533dc"><path d="M 166.246094 160.585938 C 165.984375 160.609375 165.734375 160.691406 165.5 160.824219 L 150.113281 169.671875 L 166.703125 199.789062 C 166.933594 199.757812 167.160156 199.679688 167.367188 199.5625 L 182.796875 190.679688 C 183.273438 190.40625 183.597656 189.9375 183.695312 189.410156 L 166.785156 160.613281 C 166.660156 160.589844 166.535156 160.578125 166.40625 160.578125 C 166.355469 160.578125 166.304688 160.582031 166.253906 160.585938 " clip-rule="nonzero"/></clipPath><linearGradient x1="0.0426923" gradientTransform="matrix(35.675006, 0, 0, 35.558356, 148.591996, 180.185636)" y1="0" x2="0.983822" gradientUnits="userSpaceOnUse" y2="0" id="35236a347a"><stop stop-opacity="1" stop-color="rgb(41.999817%, 74.899292%, 27.799988%)" offset="0"/><stop stop-opacity="1" stop-color="rgb(41.999817%, 74.899292%, 27.799988%)" offset="0.125"/><stop stop-opacity="1" stop-color="rgb(41.999817%, 74.899292%, 27.799988%)" offset="0.15625"/><stop stop-opacity="1" stop-color="rgb(42.045593%, 74.862671%, 27.886963%)" offset="0.164063"/><stop stop-opacity="1" stop-color="rgb(42.190552%, 74.749756%, 28.153992%)" offset="0.171875"/><stop stop-opacity="1" stop-color="rgb(42.385864%, 74.597168%, 28.517151%)" offset="0.179688"/><stop stop-opacity="1" stop-color="rgb(42.581177%, 74.44458%, 28.878784%)" offset="0.1875"/><stop stop-opacity="1" stop-color="rgb(42.776489%, 74.290466%, 29.240417%)" offset="0.195312"/><stop stop-opacity="1" stop-color="rgb(42.971802%, 74.137878%, 29.603577%)" offset="0.203125"/><stop stop-opacity="1" stop-color="rgb(43.167114%, 73.985291%, 29.96521%)" offset="0.210938"/><stop stop-opacity="1" stop-color="rgb(43.362427%, 73.832703%, 30.328369%)" offset="0.21875"/><stop stop-opacity="1" stop-color="rgb(43.557739%, 73.680115%, 30.690002%)" offset="0.226562"/><stop stop-opacity="1" stop-color="rgb(43.753052%, 73.527527%, 31.051636%)" offset="0.234375"/><stop stop-opacity="1" stop-color="rgb(43.948364%, 73.374939%, 31.414795%)" offset="0.242188"/><stop stop-opacity="1" stop-color="rgb(44.143677%, 73.222351%, 31.776428%)" offset="0.25"/><stop stop-opacity="1" stop-color="rgb(44.338989%, 73.069763%, 32.139587%)" offset="0.257812"/><stop stop-opacity="1" stop-color="rgb(44.534302%, 72.917175%, 32.501221%)" offset="0.265625"/><stop stop-opacity="1" stop-color="rgb(44.729614%, 72.764587%, 32.86438%)" offset="0.273438"/><stop stop-opacity="1" stop-color="rgb(44.924927%, 72.612%, 33.226013%)" offset="0.28125"/><stop stop-opacity="1" stop-color="rgb(45.120239%, 72.457886%, 33.587646%)" offset="0.289063"/><stop stop-opacity="1" stop-color="rgb(45.315552%, 72.305298%, 33.950806%)" offset="0.296875"/><stop stop-opacity="1" stop-color="rgb(45.510864%, 72.15271%, 34.312439%)" offset="0.304688"/><stop stop-opacity="1" stop-color="rgb(45.707703%, 72.000122%, 34.675598%)" offset="0.3125"/><stop stop-opacity="1" stop-color="rgb(45.903015%, 71.847534%, 35.037231%)" offset="0.320313"/><stop stop-opacity="1" stop-color="rgb(46.098328%, 71.694946%, 35.398865%)" offset="0.328125"/><stop stop-opacity="1" stop-color="rgb(46.29364%, 71.542358%, 35.762024%)" offset="0.335938"/><stop stop-opacity="1" stop-color="rgb(46.488953%, 71.389771%, 36.123657%)" offset="0.34375"/><stop stop-opacity="1" stop-color="rgb(46.684265%, 71.237183%, 36.486816%)" offset="0.351563"/><stop stop-opacity="1" stop-color="rgb(46.879578%, 71.084595%, 36.84845%)" offset="0.359375"/><stop stop-opacity="1" stop-color="rgb(47.07489%, 70.932007%, 37.210083%)" offset="0.367188"/><stop stop-opacity="1" stop-color="rgb(47.270203%, 70.777893%, 37.573242%)" offset="0.375"/><stop stop-opacity="1" stop-color="rgb(47.410583%, 70.606995%, 37.893677%)" offset="0.382813"/><stop stop-opacity="1" stop-color="rgb(47.384644%, 70.376587%, 38.084412%)" offset="0.390625"/><stop stop-opacity="1" stop-color="rgb(47.244263%, 70.108032%, 38.189697%)" offset="0.398438"/><stop stop-opacity="1" stop-color="rgb(47.105408%, 69.837952%, 38.293457%)" offset="0.40625"/><stop stop-opacity="1" stop-color="rgb(46.966553%, 69.569397%, 38.397217%)" offset="0.414063"/><stop stop-opacity="1" stop-color="rgb(46.827698%, 69.300842%, 38.500977%)" offset="0.421875"/><stop stop-opacity="1" stop-color="rgb(46.688843%, 69.030762%, 38.606262%)" offset="0.429688"/><stop stop-opacity="1" stop-color="rgb(46.549988%, 68.762207%, 38.710022%)" offset="0.4375"/><stop stop-opacity="1" stop-color="rgb(46.411133%, 68.493652%, 38.813782%)" offset="0.445313"/><stop stop-opacity="1" stop-color="rgb(46.272278%, 68.223572%, 38.919067%)" offset="0.453125"/><stop stop-opacity="1" stop-color="rgb(46.133423%, 67.955017%, 39.022827%)" offset="0.460938"/><stop stop-opacity="1" stop-color="rgb(45.994568%, 67.684937%, 39.126587%)" offset="0.46875"/><stop stop-opacity="1" stop-color="rgb(45.825195%, 67.449951%, 39.135742%)" offset="0.476563"/><stop stop-opacity="1" stop-color="rgb(45.619202%, 67.254639%, 39.025879%)" offset="0.484375"/><stop stop-opacity="1" stop-color="rgb(45.405579%, 67.068481%, 38.893127%)" offset="0.492188"/><stop stop-opacity="1" stop-color="rgb(45.191956%, 66.880798%, 38.760376%)" offset="0.5"/><stop stop-opacity="1" stop-color="rgb(44.976807%, 66.694641%, 38.627625%)" offset="0.507812"/><stop stop-opacity="1" stop-color="rgb(44.763184%, 66.506958%, 38.494873%)" offset="0.515625"/><stop stop-opacity="1" stop-color="rgb(44.549561%, 66.320801%, 38.363647%)" offset="0.523437"/><stop stop-opacity="1" stop-color="rgb(44.335938%, 66.133118%, 38.230896%)" offset="0.53125"/><stop stop-opacity="1" stop-color="rgb(44.120789%, 65.94696%, 38.098145%)" offset="0.539063"/><stop stop-opacity="1" stop-color="rgb(43.907166%, 65.759277%, 37.965393%)" offset="0.546875"/><stop stop-opacity="1" stop-color="rgb(43.693542%, 65.57312%, 37.832642%)" offset="0.554688"/><stop stop-opacity="1" stop-color="rgb(43.479919%, 65.386963%, 37.69989%)" offset="0.5625"/><stop stop-opacity="1" stop-color="rgb(43.264771%, 65.19928%, 37.568665%)" offset="0.570312"/><stop stop-opacity="1" stop-color="rgb(43.051147%, 65.013123%, 37.435913%)" offset="0.578125"/><stop stop-opacity="1" stop-color="rgb(42.837524%, 64.825439%, 37.303162%)" offset="0.585937"/><stop stop-opacity="1" stop-color="rgb(42.622375%, 64.639282%, 37.17041%)" offset="0.59375"/><stop stop-opacity="1" stop-color="rgb(42.408752%, 64.451599%, 37.037659%)" offset="0.601563"/><stop stop-opacity="1" stop-color="rgb(42.195129%, 64.265442%, 36.904907%)" offset="0.609375"/><stop stop-opacity="1" stop-color="rgb(41.981506%, 64.077759%, 36.773682%)" offset="0.617188"/><stop stop-opacity="1" stop-color="rgb(41.766357%, 63.891602%, 36.64093%)" offset="0.625"/><stop stop-opacity="1" stop-color="rgb(41.552734%, 63.705444%, 36.508179%)" offset="0.632812"/><stop stop-opacity="1" stop-color="rgb(41.339111%, 63.517761%, 36.375427%)" offset="0.640625"/><stop stop-opacity="1" stop-color="rgb(41.125488%, 63.331604%, 36.242676%)" offset="0.648437"/><stop stop-opacity="1" stop-color="rgb(40.910339%, 63.143921%, 36.11145%)" offset="0.65625"/><stop stop-opacity="1" stop-color="rgb(40.696716%, 62.957764%, 35.978699%)" offset="0.664062"/><stop stop-opacity="1" stop-color="rgb(40.483093%, 62.770081%, 35.845947%)" offset="0.671875"/><stop stop-opacity="1" stop-color="rgb(40.26947%, 62.583923%, 35.713196%)" offset="0.679688"/><stop stop-opacity="1" stop-color="rgb(40.054321%, 62.39624%, 35.580444%)" offset="0.6875"/><stop stop-opacity="1" stop-color="rgb(39.840698%, 62.210083%, 35.447693%)" offset="0.695312"/><stop stop-opacity="1" stop-color="rgb(39.555359%, 61.988831%, 35.258484%)" offset="0.703125"/><stop stop-opacity="1" stop-color="rgb(39.079285%, 61.676025%, 34.912109%)" offset="0.707031"/><stop stop-opacity="1" stop-color="rgb(38.780212%, 61.489868%, 34.689331%)" offset="0.710937"/><stop stop-opacity="1" stop-color="rgb(38.48114%, 61.303711%, 34.466553%)" offset="0.714844"/><stop stop-opacity="1" stop-color="rgb(38.182068%, 61.11908%, 34.243774%)" offset="0.71875"/><stop stop-opacity="1" stop-color="rgb(37.882996%, 60.932922%, 34.020996%)" offset="0.722656"/><stop stop-opacity="1" stop-color="rgb(37.583923%, 60.748291%, 33.798218%)" offset="0.726562"/><stop stop-opacity="1" stop-color="rgb(37.284851%, 60.562134%, 33.575439%)" offset="0.730469"/><stop stop-opacity="1" stop-color="rgb(36.987305%, 60.377502%, 33.352661%)" offset="0.734375"/><stop stop-opacity="1" stop-color="rgb(36.688232%, 60.191345%, 33.129883%)" offset="0.738281"/><stop stop-opacity="1" stop-color="rgb(36.38916%, 60.006714%, 32.907104%)" offset="0.742188"/><stop stop-opacity="1" stop-color="rgb(36.090088%, 59.820557%, 32.684326%)" offset="0.746094"/><stop stop-opacity="1" stop-color="rgb(35.791016%, 59.634399%, 32.461548%)" offset="0.75"/><stop stop-opacity="1" stop-color="rgb(35.491943%, 59.448242%, 32.23877%)" offset="0.753906"/><stop stop-opacity="1" stop-color="rgb(35.192871%, 59.263611%, 32.015991%)" offset="0.757812"/><stop stop-opacity="1" stop-color="rgb(34.893799%, 59.077454%, 31.793213%)" offset="0.761719"/><stop stop-opacity="1" stop-color="rgb(34.596252%, 58.892822%, 31.57196%)" offset="0.765625"/><stop stop-opacity="1" stop-color="rgb(34.29718%, 58.706665%, 31.349182%)" offset="0.769531"/><stop stop-opacity="1" stop-color="rgb(33.998108%, 58.522034%, 31.126404%)" offset="0.773437"/><stop stop-opacity="1" stop-color="rgb(33.699036%, 58.335876%, 30.903625%)" offset="0.777344"/><stop stop-opacity="1" stop-color="rgb(33.399963%, 58.149719%, 30.680847%)" offset="0.78125"/><stop stop-opacity="1" stop-color="rgb(33.100891%, 57.963562%, 30.458069%)" offset="0.785156"/><stop stop-opacity="1" stop-color="rgb(32.803345%, 57.778931%, 30.235291%)" offset="0.789062"/><stop stop-opacity="1" stop-color="rgb(32.504272%, 57.592773%, 30.012512%)" offset="0.792969"/><stop stop-opacity="1" stop-color="rgb(32.2052%, 57.408142%, 29.789734%)" offset="0.796875"/><stop stop-opacity="1" stop-color="rgb(31.906128%, 57.221985%, 29.566956%)" offset="0.800781"/><stop stop-opacity="1" stop-color="rgb(31.607056%, 57.037354%, 29.344177%)" offset="0.804688"/><stop stop-opacity="1" stop-color="rgb(31.307983%, 56.851196%, 29.121399%)" offset="0.808594"/><stop stop-opacity="1" stop-color="rgb(31.008911%, 56.665039%, 28.898621%)" offset="0.8125"/><stop stop-opacity="1" stop-color="rgb(30.709839%, 56.478882%, 28.675842%)" offset="0.816406"/><stop stop-opacity="1" stop-color="rgb(30.412292%, 56.29425%, 28.453064%)" offset="0.820312"/><stop stop-opacity="1" stop-color="rgb(30.11322%, 56.108093%, 28.230286%)" offset="0.824219"/><stop stop-opacity="1" stop-color="rgb(29.814148%, 55.923462%, 28.007507%)" offset="0.828125"/><stop stop-opacity="1" stop-color="rgb(29.515076%, 55.737305%, 27.784729%)" offset="0.832031"/><stop stop-opacity="1" stop-color="rgb(29.216003%, 55.552673%, 27.563477%)" offset="0.835937"/><stop stop-opacity="1" stop-color="rgb(28.916931%, 55.366516%, 27.340698%)" offset="0.839844"/><stop stop-opacity="1" stop-color="rgb(28.617859%, 55.181885%, 27.11792%)" offset="0.84375"/><stop stop-opacity="1" stop-color="rgb(28.318787%, 54.995728%, 26.895142%)" offset="0.847656"/><stop stop-opacity="1" stop-color="rgb(28.02124%, 54.80957%, 26.672363%)" offset="0.851562"/><stop stop-opacity="1" stop-color="rgb(27.722168%, 54.623413%, 26.449585%)" offset="0.855469"/><stop stop-opacity="1" stop-color="rgb(27.423096%, 54.438782%, 26.226807%)" offset="0.859375"/><stop stop-opacity="1" stop-color="rgb(27.124023%, 54.252625%, 26.004028%)" offset="0.863281"/><stop stop-opacity="1" stop-color="rgb(26.824951%, 54.067993%, 25.78125%)" offset="0.867188"/><stop stop-opacity="1" stop-color="rgb(26.525879%, 53.881836%, 25.558472%)" offset="0.871094"/><stop stop-opacity="1" stop-color="rgb(26.226807%, 53.697205%, 25.335693%)" offset="0.875"/><stop stop-opacity="1" stop-color="rgb(25.927734%, 53.511047%, 25.112915%)" offset="0.878906"/><stop stop-opacity="1" stop-color="rgb(25.630188%, 53.32489%, 24.890137%)" offset="0.882812"/><stop stop-opacity="1" stop-color="rgb(25.331116%, 53.138733%, 24.667358%)" offset="0.886719"/><stop stop-opacity="1" stop-color="rgb(25.032043%, 52.954102%, 24.44458%)" offset="0.890625"/><stop stop-opacity="1" stop-color="rgb(24.732971%, 52.767944%, 24.221802%)" offset="0.894531"/><stop stop-opacity="1" stop-color="rgb(24.433899%, 52.583313%, 24.000549%)" offset="0.898437"/><stop stop-opacity="1" stop-color="rgb(24.36676%, 52.540588%, 23.950195%)" offset="0.90625"/><stop stop-opacity="1" stop-color="rgb(24.299622%, 52.49939%, 23.899841%)" offset="0.9375"/><stop stop-opacity="1" stop-color="rgb(24.299622%, 52.49939%, 23.899841%)" offset="1"/></linearGradient></defs><g clip-path="url(#5364678704)"><path fill="#689f63" d="M 186.710938 236.871094 C 186.175781 236.871094 185.644531 236.730469 185.175781 236.460938 L 180.292969 233.578125 C 179.5625 233.171875 179.917969 233.027344 180.160156 232.945312 C 181.132812 232.605469 181.328125 232.53125 182.367188 231.941406 C 182.476562 231.878906 182.621094 231.902344 182.730469 231.96875 L 186.484375 234.1875 C 186.621094 234.257812 186.8125 234.257812 186.9375 234.1875 L 201.566406 225.769531 C 201.703125 225.691406 201.789062 225.535156 201.789062 225.375 L 201.789062 208.546875 C 201.789062 208.378906 201.703125 208.230469 201.5625 208.148438 L 186.941406 199.738281 C 186.804688 199.65625 186.625 199.65625 186.488281 199.738281 L 171.867188 208.148438 C 171.726562 208.226562 171.636719 208.382812 171.636719 208.542969 L 171.636719 225.371094 C 171.636719 225.53125 171.722656 225.683594 171.863281 225.761719 L 175.871094 228.070312 C 178.046875 229.152344 179.375 227.875 179.375 226.589844 L 179.375 209.984375 C 179.375 209.746094 179.5625 209.5625 179.800781 209.5625 L 181.652344 209.5625 C 181.882812 209.5625 182.074219 209.746094 182.074219 209.984375 L 182.074219 226.597656 C 182.074219 229.488281 180.492188 231.148438 177.742188 231.148438 C 176.894531 231.148438 176.230469 231.148438 174.367188 230.238281 L 170.53125 228.03125 C 169.582031 227.484375 168.996094 226.464844 168.996094 225.371094 L 168.996094 208.542969 C 168.996094 207.449219 169.582031 206.425781 170.53125 205.886719 L 185.175781 197.464844 C 186.101562 196.945312 187.332031 196.945312 188.25 197.464844 L 202.878906 205.890625 C 203.824219 206.433594 204.414062 207.453125 204.414062 208.546875 L 204.414062 225.375 C 204.414062 226.464844 203.824219 227.484375 202.878906 228.03125 L 188.25 236.453125 C 187.78125 236.722656 187.25 236.863281 186.710938 236.863281 " fill-opacity="1" fill-rule="nonzero"/></g><path fill="#689f63" d="M 191.230469 225.273438 C 184.828125 225.273438 183.488281 222.347656 183.488281 219.890625 C 183.488281 219.65625 183.675781 219.46875 183.910156 219.46875 L 185.800781 219.46875 C 186.007812 219.46875 186.183594 219.621094 186.21875 219.828125 C 186.503906 221.746094 187.351562 222.714844 191.222656 222.714844 C 194.308594 222.714844 195.617188 222.019531 195.617188 220.390625 C 195.617188 219.453125 195.246094 218.753906 190.453125 218.289062 C 186.449219 217.894531 183.972656 217.011719 183.972656 213.820312 C 183.972656 210.878906 186.460938 209.125 190.632812 209.125 C 195.316406 209.125 197.640625 210.746094 197.933594 214.226562 C 197.945312 214.347656 197.898438 214.464844 197.820312 214.554688 C 197.738281 214.636719 197.625 214.6875 197.507812 214.6875 L 195.605469 214.6875 C 195.410156 214.6875 195.238281 214.550781 195.195312 214.359375 C 194.738281 212.339844 193.632812 211.695312 190.625 211.695312 C 187.261719 211.695312 186.871094 212.863281 186.871094 213.738281 C 186.871094 214.800781 187.332031 215.113281 191.871094 215.710938 C 196.367188 216.304688 198.503906 217.144531 198.503906 220.296875 C 198.503906 223.46875 195.84375 225.292969 191.207031 225.292969 M 209.027344 207.445312 L 209.519531 207.445312 C 209.921875 207.445312 210 207.164062 210 207 C 210 206.570312 209.703125 206.570312 209.539062 206.570312 L 209.03125 206.570312 Z M 208.433594 206.066406 L 209.519531 206.066406 C 209.894531 206.066406 210.625 206.066406 210.625 206.898438 C 210.625 207.480469 210.25 207.601562 210.027344 207.671875 C 210.464844 207.703125 210.492188 207.988281 210.550781 208.386719 C 210.582031 208.640625 210.628906 209.074219 210.71875 209.21875 L 210.046875 209.21875 C 210.027344 209.074219 209.925781 208.269531 209.925781 208.226562 C 209.882812 208.046875 209.820312 207.960938 209.597656 207.960938 L 209.042969 207.960938 L 209.042969 209.222656 L 208.433594 209.222656 Z M 207.125 207.636719 C 207.125 208.941406 208.183594 210 209.484375 210 C 210.792969 210 211.851562 208.921875 211.851562 207.636719 C 211.851562 206.324219 210.777344 205.285156 209.480469 205.285156 C 208.199219 205.285156 207.121094 206.3125 207.121094 207.632812 M 212.304688 207.644531 C 212.304688 209.191406 211.035156 210.453125 209.488281 210.453125 C 207.949219 210.453125 206.667969 209.207031 206.667969 207.644531 C 206.667969 206.050781 207.976562 204.832031 209.488281 204.832031 C 211.007812 204.832031 212.300781 206.054688 212.300781 207.644531 " fill-opacity="1" fill-rule="nonzero"/><g clip-path="url(#0da53b1871)"><path fill="#333333" d="M 141.40625 171.027344 C 141.40625 170.355469 141.050781 169.742188 140.46875 169.40625 L 124.960938 160.511719 C 124.695312 160.359375 124.402344 160.277344 124.105469 160.265625 L 123.945312 160.265625 C 123.648438 160.277344 123.355469 160.359375 123.089844 160.511719 L 107.578125 169.40625 C 107 169.742188 106.640625 170.359375 106.640625 171.03125 L 106.675781 194.988281 C 106.675781 195.324219 106.847656 195.632812 107.140625 195.796875 C 107.425781 195.972656 107.785156 195.972656 108.070312 195.796875 L 117.289062 190.535156 C 117.875 190.1875 118.226562 189.578125 118.226562 188.914062 L 118.226562 177.71875 C 118.226562 177.050781 118.582031 176.433594 119.164062 176.101562 L 123.089844 173.847656 C 123.382812 173.679688 123.703125 173.597656 124.027344 173.597656 C 124.347656 173.597656 124.675781 173.679688 124.960938 173.847656 L 128.882812 176.101562 C 129.464844 176.433594 129.820312 177.050781 129.820312 177.71875 L 129.820312 188.910156 C 129.820312 189.574219 130.179688 190.1875 130.761719 190.53125 L 139.976562 195.792969 C 140.265625 195.964844 140.625 195.964844 140.914062 195.792969 C 141.195312 195.628906 141.375 195.316406 141.375 194.984375 Z M 214.601562 183.503906 C 214.601562 183.671875 214.511719 183.824219 214.367188 183.90625 L 209.039062 186.96875 C 208.894531 187.050781 208.714844 187.050781 208.570312 186.96875 L 203.242188 183.90625 C 203.097656 183.824219 203.007812 183.671875 203.007812 183.503906 L 203.007812 177.371094 C 203.007812 177.207031 203.097656 177.050781 203.238281 176.96875 L 208.5625 173.902344 C 208.710938 173.816406 208.890625 173.816406 209.035156 173.902344 L 214.363281 176.96875 C 214.511719 177.050781 214.597656 177.207031 214.597656 177.371094 Z M 216.039062 138.09375 C 215.75 137.933594 215.394531 137.9375 215.109375 138.105469 C 214.824219 138.273438 214.644531 138.578125 214.644531 138.910156 L 214.644531 162.636719 C 214.644531 162.871094 214.519531 163.085938 214.320312 163.203125 C 214.117188 163.320312 213.867188 163.320312 213.664062 163.203125 L 209.777344 160.972656 C 209.199219 160.640625 208.484375 160.640625 207.90625 160.972656 L 192.390625 169.898438 C 191.808594 170.230469 191.453125 170.847656 191.453125 171.511719 L 191.453125 189.367188 C 191.453125 190.035156 191.808594 190.648438 192.390625 190.984375 L 207.90625 199.917969 C 208.484375 200.25 209.199219 200.25 209.78125 199.917969 L 225.296875 190.980469 C 225.875 190.644531 226.234375 190.03125 226.234375 189.363281 L 226.234375 144.863281 C 226.234375 144.183594 225.863281 143.5625 225.269531 143.230469 Z M 267.710938 177.210938 C 268.285156 176.878906 268.640625 176.261719 268.640625 175.597656 L 268.640625 171.269531 C 268.640625 170.605469 268.285156 169.988281 267.707031 169.65625 L 252.289062 160.734375 C 251.707031 160.398438 250.992188 160.398438 250.410156 160.734375 L 234.898438 169.660156 C 234.316406 169.992188 233.960938 170.605469 233.960938 171.273438 L 233.960938 189.125 C 233.960938 189.796875 234.324219 190.417969 234.90625 190.75 L 250.320312 199.503906 C 250.886719 199.832031 251.582031 199.832031 252.160156 199.515625 L 261.480469 194.351562 C 261.773438 194.1875 261.960938 193.875 261.960938 193.542969 C 261.960938 193.207031 261.78125 192.890625 261.488281 192.726562 L 245.882812 183.800781 C 245.589844 183.632812 245.410156 183.324219 245.410156 182.992188 L 245.410156 177.394531 C 245.410156 177.058594 245.585938 176.75 245.878906 176.585938 L 250.734375 173.792969 C 251.023438 173.625 251.378906 173.625 251.667969 173.792969 L 256.527344 176.585938 C 256.816406 176.75 256.996094 177.058594 256.996094 177.390625 L 256.996094 181.792969 C 256.996094 182.125 257.175781 182.433594 257.464844 182.601562 C 257.753906 182.765625 258.113281 182.765625 258.402344 182.597656 Z M 267.710938 177.210938 " fill-opacity="1" fill-rule="evenodd"/></g><path fill="#689f63" d="M 251.125 176.375 C 251.234375 176.3125 251.371094 176.3125 251.484375 176.375 L 254.460938 178.089844 C 254.570312 178.152344 254.640625 178.269531 254.640625 178.398438 L 254.640625 181.824219 C 254.640625 181.953125 254.570312 182.070312 254.460938 182.136719 L 251.484375 183.847656 C 251.371094 183.914062 251.234375 183.914062 251.125 183.847656 L 248.148438 182.136719 C 248.035156 182.070312 247.964844 181.953125 247.964844 181.824219 L 247.964844 178.398438 C 247.964844 178.269531 248.03125 178.152344 248.144531 178.089844 Z M 251.125 176.375 " fill-opacity="1" fill-rule="evenodd"/><g clip-path="url(#a0c8c35039)"><g clip-path="url(#3922dbbe8e)"><g clip-path="url(#1aab5b643c)"><path fill="url(#3bee1c3bf4)" d="M 199.3125 168.191406 L 155.839844 146.953125 L 133.546875 192.277344 L 177.019531 213.515625 Z M 199.3125 168.191406 " fill-rule="nonzero"/></g></g></g><g clip-path="url(#07feb0ab24)"><g clip-path="url(#802b74ae80)"><g clip-path="url(#4be65eaae6)"><path fill="url(#0f8474eefe)" d="M 130.722656 174.472656 L 161.421875 215.886719 L 202.023438 185.988281 L 171.320312 144.574219 Z M 130.722656 174.472656 " fill-rule="nonzero"/></g></g></g><g clip-path="url(#b875454ded)"><g clip-path="url(#a3d10533dc)"><path fill="url(#35236a347a)" d="M 150.113281 160.578125 L 150.113281 199.789062 L 183.691406 199.789062 L 183.691406 160.578125 Z M 150.113281 160.578125 " fill-rule="nonzero"/></g></g></svg>